<svg width="20" height="20" viewBox="0 0 20 20" fill="none" xmlns="http://www.w3.org/2000/svg">
<g id="Group 48099331">
<path id="Vector" d="M6.99609 10L8.99896 12L13.0047 8" stroke="white" stroke-width="2" stroke-linecap="round" stroke-linejoin="round"/>
<path id="Vector_2" d="M10 1C12.3392 3.06658 15.3922 4.14257 18.5122 4C18.9664 5.54302 19.1054 7.16147 18.9209 8.75918C18.7364 10.3569 18.2321 11.9013 17.438 13.3005C16.644 14.6998 15.5764 15.9254 14.2986 16.9045C13.0208 17.8836 11.559 18.5962 10 19C8.44098 18.5962 6.97916 17.8836 5.7014 16.9045C4.42364 15.9254 3.35602 14.6998 2.56197 13.3005C1.76792 11.9013 1.26365 10.3569 1.07913 8.75918C0.894605 7.16147 1.03359 5.54302 1.48784 4C4.60782 4.14257 7.66083 3.06658 10 1Z" stroke="white" stroke-width="2" stroke-linecap="round" stroke-linejoin="round"/>
</g>
</svg>
