<svg width="24" height="24" viewBox="0 0 24 24" fill="none" xmlns="http://www.w3.org/2000/svg">
<path d="M18 6H6C5.4375 6.02083 4.96875 6.21875 4.59375 6.59375C4.21875 6.96875 4.02083 7.4375 4 8V16C4.02083 16.5625 4.21875 17.0312 4.59375 17.4062C4.96875 17.7812 5.4375 17.9792 6 18H18C18.5625 17.9792 19.0312 17.7812 19.4062 17.4062C19.7812 17.0312 19.9792 16.5625 20 16V8C19.9792 7.4375 19.7812 6.96875 19.4062 6.59375C19.0312 6.21875 18.5625 6.02083 18 6ZM6 7.5H18C18.3125 7.52083 18.4792 7.6875 18.5 8V8.6875L13.2812 13C12.9062 13.3125 12.4792 13.4688 12 13.4688C11.5208 13.4688 11.0938 13.3125 10.7188 13L5.5 8.6875V8C5.52083 7.6875 5.6875 7.52083 6 7.5ZM18 16.5H6C5.6875 16.4792 5.52083 16.3125 5.5 16V10.6562L9.75 14.1875C10.4167 14.7292 11.1667 15 12 15C12.8333 15 13.5833 14.7292 14.25 14.1875L18.5 10.6562V16C18.4792 16.3125 18.3125 16.4792 18 16.5Z" fill="white"/>
</svg>
