<svg width="17" height="17" viewBox="0 0 17 17" fill="none" xmlns="http://www.w3.org/2000/svg">
<path d="M15 11L11.9375 9.6875C11.6042 9.54167 11.2604 9.51042 10.9062 9.59375C10.5521 9.67708 10.2604 9.86458 10.0312 10.1562L9.15625 11.2188C7.73958 10.3854 6.61458 9.27083 5.78125 7.875L6.84375 7C7.13542 6.77083 7.32292 6.47917 7.40625 6.125C7.48958 5.77083 7.45833 5.42708 7.3125 5.09375L6 2C5.83333 1.625 5.57292 1.35417 5.21875 1.1875C4.88542 1 4.52083 0.947917 4.125 1.03125L1.28125 1.6875C0.885417 1.79167 0.572917 1.98958 0.34375 2.28125C0.114583 2.57292 0 2.90625 0 3.28125C0.0208333 5.84375 0.645833 8.15625 1.875 10.2188C3.10417 12.2604 4.73958 13.8958 6.78125 15.125C8.84375 16.3542 11.1562 16.9792 13.7188 17C14.0938 17 14.4271 16.8854 14.7188 16.6562C15.0104 16.4271 15.1979 16.1146 15.2812 15.7188L15.9375 12.875C16.0208 12.4792 15.9792 12.1146 15.8125 11.7812C15.6458 11.4271 15.375 11.1667 15 11ZM14.5 12.5312L13.8438 15.4062C13.8229 15.4479 13.7812 15.4792 13.7188 15.5C11.4479 15.4792 9.39583 14.9271 7.5625 13.8438C5.72917 12.7396 4.26042 11.2708 3.15625 9.4375C2.07292 7.60417 1.52083 5.55208 1.5 3.28125C1.5 3.21875 1.53125 3.17708 1.59375 3.15625L4.46875 2.5C4.46875 2.5 4.47917 2.5 4.5 2.5C4.54167 2.5 4.58333 2.53125 4.625 2.59375L5.9375 5.65625C5.95833 5.71875 5.94792 5.77083 5.90625 5.8125L4.375 7.03125C4.08333 7.28125 4.01042 7.58333 4.15625 7.9375C4.69792 9 5.375 9.94792 6.1875 10.7812C7.02083 11.6146 7.96875 12.2917 9.03125 12.8125C9.36458 12.9583 9.66667 12.8854 9.9375 12.5938L11.1875 11.0938C11.2292 11.0312 11.2812 11.0104 11.3438 11.0312L14.4062 12.3438C14.4688 12.4062 14.5 12.4688 14.5 12.5312Z" fill="white"/>
</svg>
